<svg xmlns="http://www.w3.org/2000/svg" xmlns:xlink="http://www.w3.org/1999/xlink" width="125" zoomAndPan="magnify" viewBox="0 0 93.75 93.749996" height="125" preserveAspectRatio="xMidYMid meet" version="1.0"><defs><clipPath id="455ee54e2e"><path d="M 0 0 L 93.5 0 L 93.5 93.5 L 0 93.5 Z M 0 0 " clip-rule="nonzero"/></clipPath></defs><g clip-path="url(#455ee54e2e)"><path fill="#75a9b3" d="M 61.480469 93.136719 C 54.910156 86.179688 48.625 79.519531 42.132812 72.644531 C 39.382812 77.855469 36.664062 83.011719 33.945312 88.164062 C 33.785156 88.121094 33.625 88.078125 33.460938 88.03125 C 33.878906 82.714844 34.292969 77.398438 34.714844 72.082031 C 34.742188 71.75 34.867188 71.417969 34.847656 71.097656 C 34.371094 63.042969 37.449219 57.992188 42.082031 53.230469 C 51.882812 43.152344 61.238281 32.308594 70.578125 21.289062 C 69.507812 22.066406 68.4375 22.851562 67.363281 23.617188 C 55.582031 32.046875 43.820312 40.519531 32 48.847656 C 30.441406 49.949219 29.917969 51.183594 29.980469 53.488281 C 30.121094 58.78125 30.023438 64.082031 30.023438 69.9375 C 28.601562 65.425781 26.996094 61.40625 26.0625 57.128906 C 24.527344 50.101562 21.3125 45.722656 16.324219 42.738281 C 10.933594 39.515625 5.855469 35.355469 0 31.140625 C 31.253906 20.691406 61.914062 10.441406 93.136719 0 C 82.476562 31.375 72.046875 62.058594 61.480469 93.136719 Z M 61.480469 93.136719 " fill-opacity="1" fill-rule="nonzero"/></g></svg>